<svg class="logo--horizontal" fill="none" height="100%" viewBox="0 0 170 45" width="100%" xmlns="http://www.w3.org/2000/svg"><g><path d="M102.741 18.6585H99.205V25.0031H94.5647V3.86011H103.199C108.231 3.86011 111.29 6.8538 111.29 11.1743V11.2423C111.273 16.1241 107.466 18.6585 102.741 18.6585ZM106.565 11.2593C106.565 9.18412 105.12 8.06149 102.792 8.06149H99.205V14.5252H102.894C105.222 14.5252 106.582 13.1304 106.582 11.3273V11.2593H106.565Z" fill="black"></path><path d="M123.665 18.6608H120.129V25.0054H115.489V3.86243H124.124C129.155 3.86243 132.214 6.85612 132.214 11.1766V11.2446C132.197 16.1264 128.39 18.6608 123.665 18.6608ZM127.489 11.2616C127.489 9.18644 126.044 8.06381 123.716 8.06381H120.129V14.5275H123.818C126.146 14.5275 127.506 13.1327 127.506 11.3297V11.2616H127.489Z" fill="black"></path><path d="M136.158 24.9884V3.86243H140.798V20.77H151.32V25.0054H136.158V24.9884Z" fill="black"></path><path d="M161.875 16.5687V24.9884H157.235V16.6537L149.127 3.84546H154.566L159.581 12.3503L164.714 3.86247H170L161.875 16.5687Z" fill="black"></path><path d="M78.4001 2.07642L65.9238 25.0224H71.1931L78.4001 11.7549L85.5731 24.9544L85.6071 25.0224H90.8763L78.4001 2.07642Z" fill="black"></path><path d="M71.5855 41.7768H68.4919V33.4591H71.5855C74.2031 33.4591 76.0049 35.2451 76.0049 37.6095C76.0049 39.9568 74.1861 41.7768 71.5855 41.7768ZM71.5855 34.8029H69.9537V40.4501H71.5855C73.3363 40.4501 74.4751 39.2764 74.4751 37.6435C74.4751 35.9935 73.3363 34.8029 71.5855 34.8029Z" fill="black"></path><path d="M87.8134 33.4591V41.7768H86.3516V33.4591H87.8134Z" fill="black"></path><path d="M102.461 41.913C99.8599 41.913 98.1602 40.0589 98.1602 37.6266C98.1602 35.2962 99.9449 33.3231 102.444 33.3231C103.888 33.3231 104.772 33.7314 105.639 34.4458L104.721 35.5514C104.075 35.0071 103.446 34.6669 102.393 34.6669C100.863 34.6669 99.7069 35.9936 99.7069 37.6096C99.7069 39.3275 100.829 40.5862 102.529 40.5862C103.31 40.5862 104.024 40.3311 104.534 39.9569V38.409H102.393V37.1333H105.928V40.6203C105.112 41.3177 103.939 41.913 102.461 41.913Z" fill="black"></path><path d="M118.005 33.4591V41.7768H116.543V33.4591H118.005Z" fill="black"></path><path d="M132.622 41.7768H131.144V34.8199H128.509V33.4591H135.24V34.8199H132.605V41.7768H132.622Z" fill="black"></path><path d="M162.317 33.4591H163.779V40.4331H168.147V41.7598H162.317V33.4591Z" fill="black"></path><path d="M147.699 36.2658L150.691 41.7769H152.289L147.699 33.3231L143.11 41.7769H144.708L147.699 36.2658Z" fill="black"></path></g><path d="M25.5726 0L0 44.1221H51.1298L25.5726 0ZM15.681 30.8901H27.6469L21.6717 20.5729L25.5726 13.8335L39.3651 37.6295H11.7801L15.681 30.8901Z" fill="#2558BF"></path></svg>