<?xml version="1.0" encoding="UTF-8" standalone="no"?>
<!-- Created with Inkscape (http://www.inkscape.org/) -->

<svg
   xmlns:dc="http://purl.org/dc/elements/1.1/"
   xmlns:cc="http://creativecommons.org/ns#"
   xmlns:rdf="http://www.w3.org/1999/02/22-rdf-syntax-ns#"
   xmlns:svg="http://www.w3.org/2000/svg"
   xmlns="http://www.w3.org/2000/svg"
   xmlns:sodipodi="http://sodipodi.sourceforge.net/DTD/sodipodi-0.dtd"
   xmlns:inkscape="http://www.inkscape.org/namespaces/inkscape"
   width="237.49474"
   height="41.954559"
   viewBox="0 0 62.83715 11.100476"
   version="1.1"
   id="svg3680"
   inkscape:version="0.92.0 r15299"
   sodipodi:docname="direct energy.svg">
  <defs
     id="defs3674" />
  <sodipodi:namedview
     id="base"
     pagecolor="#ffffff"
     bordercolor="#666666"
     borderopacity="1.0"
     inkscape:pageopacity="0.0"
     inkscape:pageshadow="2"
     inkscape:zoom="3.4055964"
     inkscape:cx="117.74737"
     inkscape:cy="19.977279"
     inkscape:document-units="mm"
     inkscape:current-layer="layer1"
     showgrid="false"
     fit-margin-top="0"
     fit-margin-left="0"
     fit-margin-right="0"
     fit-margin-bottom="0"
     units="px"
     inkscape:window-width="1280"
     inkscape:window-height="744"
     inkscape:window-x="-4"
     inkscape:window-y="-4"
     inkscape:window-maximized="1" />
  <metadata
     id="metadata3677">
    <rdf:RDF>
      <cc:Work
         rdf:about="">
        <dc:format>image/svg+xml</dc:format>
        <dc:type
           rdf:resource="http://purl.org/dc/dcmitype/StillImage" />
        <dc:title></dc:title>
      </cc:Work>
    </rdf:RDF>
  </metadata>
  <g
     inkscape:label="Layer 1"
     inkscape:groupmode="layer"
     id="layer1"
     transform="translate(-66.363889,-184.5959)">
    <path
       inkscape:connector-curvature="0"
       id="path3097"
       style="fill:#f05c21;fill-opacity:1;fill-rule:nonzero;stroke:none;stroke-width:0.35277778"
       d="m 71.878868,192.15472 c 0,0 -0.469194,0.38488 -0.507294,0.35772 -0.07232,-0.0554 0.322086,-1.73214 0.290688,-1.82034 -0.03104,-0.0889 -1.314097,-0.0568 -2.24543,-0.26105 0,0 0.633589,0.46778 0.484364,0.46637 -0.113947,0 -1.836914,0.11994 -3.27272,-0.59972 v 5.07718 h 4.697942 c 0.203906,-0.88618 0.549628,-2.49309 0.55245,-3.22016 m 2.453922,-1.55646 c 0,0 -1.767416,0.10125 -1.805164,0.13582 -0.03563,0.0349 -0.06032,0.47237 -0.240241,1.1236 0,0 0.515761,-0.60325 0.589139,-0.58878 0.06279,0.012 -0.428978,2.63419 -1.2573,4.10598 h 5.525205 v -5.72947 c -1.194506,0.15875 -2.681111,0.45509 -2.811639,0.95285 m -2.86773,-3.97474 c 0.200025,-0.27235 0.418041,-0.64382 0.502708,-0.60643 0.08502,0.0395 0.328083,0.91828 0.487186,1.83586 0.16122,0.92145 0.153458,1.84079 0.17392,1.84785 0.08431,0.0219 0.836083,-0.5648 0.915811,-0.57397 0.07655,-0.009 0.0056,0.43286 -0.31362,0.78352 0,0 1.607256,-0.8703 3.913364,-0.68615 v -4.36351 h -5.726642 c -0.06985,0.67945 -0.0889,1.34902 0.04727,1.76283 m -4.836584,3.06528 v -4.82811 h 4.35222 c -0.539045,1.78188 -0.326672,3.1242 -0.28187,3.13372 0.05927,0.0141 0.541514,-1.00577 0.541514,-1.00577 0.556331,1.10067 0.467078,2.97427 0.467078,2.97427 -1.794933,0.32773 -3.850922,0.0138 -5.078942,-0.27411" />
    <g
       id="g3757"
       transform="translate(0,1.6725487)"
       style="fill:#f05c21;fill-opacity:1">
      <path
         d="m 117.8288,186.33894 c -1.09678,0.025 -1.64853,0.38171 -1.64853,1.48696 v 2.7118 h 1.03611 v -2.7118 c 0,-0.51823 0.19544,-0.59479 0.59478,-0.61207 0.25577,-0.0169 0.34502,0.0342 0.57468,-0.0931 0.21308,-0.11078 0.29774,-0.3743 0.28892,-0.74754 -0.2801,-0.0176 -0.50623,-0.0427 -0.84596,-0.0342"
         style="fill:#f05c21;fill-opacity:1;fill-rule:nonzero;stroke:none;stroke-width:0.35277778"
         id="path3101"
         inkscape:connector-curvature="0" />
      <path
         d="m 82.301476,190.52997 c 1.900767,0 2.57175,-0.86572 2.57175,-2.81764 0,-2.13042 -0.670983,-2.85185 -2.57175,-2.85185 h -2.139244 v 5.66949 z m 0,-0.94156 h -1.068917 v -3.78566 h 1.068917 c 1.188508,0 1.468614,0.3563 1.468614,1.90958 0,1.55328 -0.280106,1.87608 -1.468614,1.87608"
         style="fill:#f05c21;fill-opacity:1;fill-rule:nonzero;stroke:none;stroke-width:0.35277778"
         id="path3105"
         inkscape:connector-curvature="0" />
      <path
         d="m 85.45792,186.02384 h 1.036814 v -1.01882 c -0.51047,-0.06 -1.036814,0.085 -1.036814,0.6537 z"
         style="fill:#f05c21;fill-opacity:1;fill-rule:nonzero;stroke:none;stroke-width:0.35277778"
         id="path3109"
         inkscape:connector-curvature="0" />
      <path
         inkscape:connector-curvature="0"
         id="path3111"
         style="fill:#f05c21;fill-opacity:1;fill-rule:nonzero;stroke:none;stroke-width:0.35277778"
         d="m 85.449735,190.5298 h 1.04387 v -4.14162 h -1.04387 z" />
      <path
         d="m 97.014779,189.69018 c -0.212725,0.025 -0.611365,0.0677 -0.976842,0.0677 -0.891117,0 -1.086202,-0.27199 -1.086202,-1.32362 0,-1.0354 0.246589,-1.20544 0.83185,-1.20544 0.195437,0 0.483304,0.025 0.627944,0.0339 0.484365,0.025 0.696383,-0.29669 0.670631,-0.8061 -0.355954,-0.06 -0.80645,-0.11924 -1.264356,-0.11924 -1.358194,0 -1.9177,0.53446 -1.9177,2.09691 0,1.67111 0.61877,2.18087 2.019652,2.18087 0.440266,0 0.874538,-0.0512 1.144764,-0.0854 z"
         style="fill:#f05c21;fill-opacity:1;fill-rule:nonzero;stroke:none;stroke-width:0.35277778"
         id="path3115"
         inkscape:connector-curvature="0" />
      <path
         d="m 99.322932,187.21171 h 0.738368 c 0.54468,0 0.74788,-0.24589 0.69708,-0.82338 h -1.435448 v -1.3836 c -0.508352,-0.0596 -1.03505,0.0847 -1.03505,0.65335 v 0.73025 h -0.771525 v 0.82338 h 0.771525 v 1.87607 c 0,1.03505 0.425098,1.48449 1.502834,1.48449 0.330554,0 0.610654,-0.0247 0.873474,-0.0586 l -0.0243,-0.82338 c -0.19579,0.0166 -0.48436,0.0332 -0.722132,0.0332 -0.399343,0 -0.594783,-0.13512 -0.594783,-0.57679 z"
         style="fill:#f05c21;fill-opacity:1;fill-rule:nonzero;stroke:none;stroke-width:0.35277778"
         id="path3119"
         inkscape:connector-curvature="0" />
      <path
         d="m 106.85276,189.62192 h -2.71604 v -1.54446 h 1.73179 c 0.55986,0 0.83996,-0.31433 0.76341,-0.90876 h -2.4952 v -1.40017 h 1.95192 c 0.56057,0 0.83997,-0.31433 0.76412,-0.90805 h -3.78566 v 5.66949 h 3.78566 z"
         style="fill:#f05c21;fill-opacity:1;fill-rule:nonzero;stroke:none;stroke-width:0.35277778"
         id="path3123"
         inkscape:connector-curvature="0" />
      <path
         d="m 114.04974,189.75781 c -0.71402,0 -1.01423,-0.18133 -1.10066,-0.81986 0.36195,0.054 0.75353,0.0628 1.20156,0.0557 1.17228,-0.0162 1.53634,-0.4325 1.53634,-1.30669 0,-0.82338 -0.51752,-1.34972 -1.69721,-1.34972 -1.36631,0 -2.12125,0.61136 -2.12125,2.13889 0,1.63018 0.72002,2.13889 2.0962,2.13889 0.50024,0 1.14583,-0.0759 1.45027,-0.14393 l -0.0497,-0.84067 c -0.25471,0.0515 -0.87489,0.12735 -1.31551,0.12735 m -0.0931,-2.57175 c 0.54257,0 0.76341,0.19544 0.76341,0.52634 0,0.30516 -0.0511,0.50942 -0.68756,0.50942 -0.37218,0 -0.73519,-0.007 -1.10173,-0.0667 0.0529,-0.80751 0.35842,-0.96908 1.02588,-0.96908"
         style="fill:#f05c21;fill-opacity:1;fill-rule:nonzero;stroke:none;stroke-width:0.35277778"
         id="path3127"
         inkscape:connector-curvature="0" />
      <path
         d="m 91.838364,189.75781 c -0.713317,0 -1.013883,-0.18133 -1.101019,-0.82056 0.362655,0.0547 0.754238,0.0635 1.203677,0.0564 1.170869,-0.0162 1.535643,-0.4325 1.535643,-1.30669 0,-0.82338 -0.517526,-1.34972 -1.697215,-1.34972 -1.366308,0 -2.121958,0.61136 -2.121958,2.13889 0,1.63018 0.72143,2.13889 2.0955,2.13889 0.501297,0 1.146528,-0.0759 1.452387,-0.14393 l -0.05151,-0.84067 c -0.254352,0.0515 -0.87383,0.12735 -1.315508,0.12735 m -0.09313,-2.57175 c 0.542925,0 0.764116,0.19544 0.764116,0.52634 0,0.30516 -0.05115,0.50942 -0.687211,0.50942 -0.372886,0 -0.735894,-0.007 -1.103489,-0.0667 0.05362,-0.80751 0.359128,-0.96908 1.026584,-0.96908"
         style="fill:#f05c21;fill-opacity:1;fill-rule:nonzero;stroke:none;stroke-width:0.35277778"
         id="path3131"
         inkscape:connector-curvature="0" />
      <path
         d="m 109.37311,187.22875 c 0.69603,0 0.92392,0.1524 0.92392,0.7045 v 2.59679 h 1.03717 v -2.61408 c 0,-1.19662 -0.6283,-1.57833 -1.96109,-1.57833 -1.24742,0 -1.96039,0.38171 -1.96039,1.57833 v 2.61408 h 1.03576 v -2.59679 c 0,-0.5521 0.2293,-0.7045 0.92463,-0.7045"
         style="fill:#f05c21;fill-opacity:1;fill-rule:nonzero;stroke:none;stroke-width:0.35277778"
         id="path3135"
         inkscape:connector-curvature="0" />
      <path
         d="m 120.66965,186.30542 c -1.39241,0 -1.95227,0.52634 -1.95227,2.16464 0,1.41747 0.44133,2.02883 1.39947,2.02883 0.44873,0 0.94474,-0.15558 1.4351,-0.34713 v 0.37218 c 0,0.56938 -0.37289,0.64523 -0.78987,0.66181 -0.26247,0.0169 -1.04316,-0.0166 -1.39171,-0.0674 l -0.0681,0.8322 c 0.28857,0.0416 1.07844,0.0924 1.42664,0.0843 1.22166,-0.0254 1.8669,-0.38205 1.8669,-1.4859 v -4.00579 c -0.49213,-0.1016 -1.24778,-0.23777 -1.92618,-0.23777 m -0.25505,3.2512 c -0.48366,0 -0.64453,-0.29669 -0.64453,-1.13736 0,-0.96802 0.26176,-1.25659 0.88159,-1.25659 0.34079,0 0.67381,0.0363 0.90311,0.0751 -0.001,0.57785 -0.002,1.39418 -0.002,2.07363 -0.46921,0.17392 -0.85197,0.24518 -1.13808,0.24518"
         style="fill:#f05c21;fill-opacity:1;fill-rule:nonzero;stroke:none;stroke-width:0.35277778"
         id="path3139"
         inkscape:connector-curvature="0" />
      <path
         d="m 127.03285,186.35636 h -1.034 v 2.80106 c -0.44203,0.17815 -0.9592,0.3563 -1.29892,0.3563 -0.28858,0 -0.45897,-0.18662 -0.45897,-0.46708 v -2.73191 c -0.5087,-0.06 -1.0354,0.084 -1.0354,0.65335 v 2.11314 c 0,0.89923 0.31433,1.38359 1.16311,1.38359 0.44203,0 1.06892,-0.20355 1.63018,-0.45791 v 0.54187 c 0,0.56974 -0.40816,0.64558 -0.84984,0.66252 -0.27093,0.0173 -1.06891,-0.0169 -1.43333,-0.0677 l -0.10231,0.85725 c 0.29704,0.0423 1.12042,0.0931 1.47673,0.085 1.27247,-0.0261 1.94275,-0.38205 1.94275,-1.48554 z"
         style="fill:#f05c21;fill-opacity:1;fill-rule:nonzero;stroke:none;stroke-width:0.35277778"
         id="path3143"
         inkscape:connector-curvature="0" />
      <path
         d="m 88.772161,186.33894 c -1.097139,0.025 -1.649942,0.38171 -1.649942,1.48696 v 2.7118 h 1.03752 v -2.7118 c 0,-0.51823 0.195086,-0.59479 0.595136,-0.61207 0.254705,-0.0169 0.344311,0.0342 0.573617,-0.0931 0.212725,-0.11078 0.29845,-0.3743 0.289277,-0.74754 -0.280105,-0.0176 -0.505883,-0.0427 -0.845608,-0.0342"
         style="fill:#f05c21;fill-opacity:1;fill-rule:nonzero;stroke:none;stroke-width:0.35277778"
         id="path3147"
         inkscape:connector-curvature="0" />
      <path
         d="m 128.36172,190.04116 h 0.0963 c 0.0307,0 0.0564,-0.007 0.0776,-0.0205 0.0208,-0.0134 0.0314,-0.0325 0.0314,-0.0572 0,-0.0321 -0.008,-0.0543 -0.0261,-0.0674 -0.0177,-0.013 -0.048,-0.0194 -0.0917,-0.0194 h -0.0875 z m 0,0.091 v 0.22613 h -0.1016 v -0.57256 h 0.18909 c 0.0681,0 0.12136,0.0152 0.16052,0.0451 0.0388,0.0296 0.0586,0.073 0.0586,0.13018 0,0.0265 -0.007,0.0501 -0.0208,0.0702 -0.0134,0.0201 -0.0335,0.0374 -0.06,0.0511 0.0279,0.0127 0.048,0.0311 0.06,0.0554 0.0127,0.024 0.0187,0.0529 0.0187,0.0868 v 0.0374 c 0,0.0187 7.9e-4,0.0349 0.002,0.0497 0.001,0.0145 0.005,0.0265 0.009,0.036 v 0.0106 h -0.10442 c -0.004,-0.009 -0.007,-0.0233 -0.007,-0.0413 -0.001,-0.018 -0.001,-0.0367 -0.001,-0.0554 v -0.0363 c 0,-0.0318 -0.008,-0.055 -0.0226,-0.0706 -0.0152,-0.0152 -0.0395,-0.0226 -0.0737,-0.0226 z m -0.29915,-0.0519 c 0,0.11853 0.0384,0.21837 0.11571,0.29915 0.0769,0.0811 0.17039,0.12171 0.28046,0.12171 0.10971,0 0.20285,-0.0406 0.27975,-0.12171 0.0773,-0.0808 0.11571,-0.18062 0.11571,-0.29915 0,-0.11818 -0.0384,-0.21767 -0.11571,-0.2981 -0.0769,-0.0808 -0.17004,-0.121 -0.27975,-0.121 -0.11042,0 -0.20391,0.0402 -0.28081,0.121 -0.0769,0.0804 -0.11536,0.17992 -0.11536,0.2981 m -0.0818,0 c 0,-0.14147 0.0462,-0.2607 0.13935,-0.35772 0.0928,-0.097 0.20567,-0.1457 0.33866,-0.1457 0.13265,0 0.24518,0.0487 0.33797,0.1457 0.0931,0.097 0.1397,0.21625 0.1397,0.35772 0,0.14181 -0.0466,0.26141 -0.14006,0.35877 -0.0931,0.0974 -0.20567,0.14641 -0.33761,0.14641 -0.13299,0 -0.24588,-0.049 -0.33866,-0.14641 -0.0931,-0.0974 -0.13935,-0.21696 -0.13935,-0.35877"
         style="fill:#f05c21;fill-opacity:1;fill-rule:nonzero;stroke:none;stroke-width:0.35277778"
         id="path3151"
         inkscape:connector-curvature="0" />
    </g>
  </g>
</svg>
